<svg xmlns="http://www.w3.org/2000/svg" width="48" height="48" fill="none"><defs><clipPath id="a"><path fill="#fff" fill-opacity="0" d="M0 0h48v48H0z"/></clipPath></defs><g clip-path="url(#a)"><circle cx="24" cy="24" r="22.042" fill="#114971"/><path fill="#FFF" fill-rule="evenodd" d="m31.53 18.58-5.34 5.34h3.66c.05 0 .09-.02.12-.06l3.42-3.41c.52-.52.52-1.35 0-1.87-.51-.51-1.35-.51-1.86 0Zm.9 12.92a10.4 10.4 0 0 0 1.98-5.63c.01-.28-.22-.5-.49-.5H14.07c-.27 0-.5.22-.49.5.1 1.96.74 3.92 1.98 5.63 1.25 1.72 3.04 3.08 5.22 3.78 2.02.66 4.26.71 6.44 0 2.02-.65 3.86-1.93 5.21-3.78Z"/></g></svg>